<svg width="1859" height="588" viewBox="0 0 1859 588" fill="none" xmlns="http://www.w3.org/2000/svg">
<g clip-path="url(#clip0_135_2)">
<rect width="1875" height="588" fill="#F4F6ED"/>
<rect y="-233" width="280" height="596" rx="40" fill="#CAFF54"/>
<rect x="141" y="-172" width="425" height="535" rx="40" fill="#0F0F0F"/>
<g filter="url(#filter0_di_135_2)">
<rect x="427" y="-83" width="1445" height="446" rx="40" fill="#565FF2" shape-rendering="crispEdges"/>
<path d="M1087.64 56V22.16H1098.01V47.456H1111.74V56H1087.64ZM1128.01 56.576C1125.2 56.576 1122.75 56.064 1120.67 55.04C1118.59 53.984 1116.97 52.496 1115.82 50.576C1114.7 48.656 1114.14 46.384 1114.14 43.76C1114.14 41.104 1114.7 38.832 1115.82 36.944C1116.97 35.024 1118.59 33.552 1120.67 32.528C1122.75 31.472 1125.2 30.944 1128.01 30.944C1130.83 30.944 1133.26 31.472 1135.31 32.528C1137.39 33.552 1138.99 35.024 1140.11 36.944C1141.26 38.832 1141.84 41.104 1141.84 43.76C1141.84 46.384 1141.26 48.656 1140.11 50.576C1138.99 52.496 1137.39 53.984 1135.31 55.04C1133.26 56.064 1130.83 56.576 1128.01 56.576ZM1128.01 49.232C1129.16 49.232 1130.08 48.816 1130.75 47.984C1131.42 47.152 1131.76 45.744 1131.76 43.76C1131.76 41.776 1131.42 40.368 1130.75 39.536C1130.08 38.704 1129.16 38.288 1128.01 38.288C1126.83 38.288 1125.9 38.704 1125.23 39.536C1124.56 40.368 1124.22 41.776 1124.22 43.76C1124.22 45.744 1124.56 47.152 1125.23 47.984C1125.9 48.816 1126.83 49.232 1128.01 49.232ZM1158.44 56.576C1155.65 56.576 1153.21 56.064 1151.09 55.04C1148.98 54.016 1147.33 52.544 1146.15 50.624C1145 48.704 1144.42 46.416 1144.42 43.76C1144.42 41.072 1145 38.784 1146.15 36.896C1147.33 34.976 1148.98 33.504 1151.09 32.48C1153.21 31.456 1155.65 30.944 1158.44 30.944C1160.13 30.944 1161.8 31.168 1163.43 31.616C1165.09 32.032 1166.42 32.624 1167.41 33.392L1164.73 40.16C1164.02 39.616 1163.19 39.2 1162.23 38.912C1161.3 38.592 1160.41 38.432 1159.54 38.432C1158.01 38.432 1156.81 38.88 1155.94 39.776C1155.11 40.672 1154.69 42 1154.69 43.76C1154.69 45.52 1155.11 46.848 1155.94 47.744C1156.81 48.64 1158.01 49.088 1159.54 49.088C1160.37 49.088 1161.27 48.928 1162.23 48.608C1163.19 48.288 1164.02 47.872 1164.73 47.36L1167.41 54.128C1166.39 54.896 1165.06 55.504 1163.43 55.952C1161.8 56.368 1160.13 56.576 1158.44 56.576ZM1180.06 56.576C1177.98 56.576 1176.13 56.064 1174.49 55.04C1172.89 54.016 1171.63 52.544 1170.7 50.624C1169.81 48.704 1169.36 46.416 1169.36 43.76C1169.36 41.104 1169.81 38.816 1170.7 36.896C1171.63 34.976 1172.89 33.504 1174.49 32.48C1176.13 31.456 1177.98 30.944 1180.06 30.944C1181.85 30.944 1183.5 31.36 1185.01 32.192C1186.54 33.024 1187.53 34.112 1187.98 35.456H1187.5L1188.08 31.52H1197.68C1197.55 32.672 1197.45 33.84 1197.39 35.024C1197.33 36.176 1197.29 37.328 1197.29 38.48V56H1187.41L1187.31 52.352H1187.89C1187.41 53.6 1186.41 54.624 1184.91 55.424C1183.44 56.192 1181.82 56.576 1180.06 56.576ZM1183.42 49.232C1184.61 49.232 1185.57 48.816 1186.3 47.984C1187.07 47.152 1187.45 45.744 1187.45 43.76C1187.45 41.776 1187.07 40.368 1186.3 39.536C1185.57 38.704 1184.61 38.288 1183.42 38.288C1182.24 38.288 1181.26 38.704 1180.49 39.536C1179.76 40.368 1179.39 41.776 1179.39 43.76C1179.39 45.744 1179.76 47.152 1180.49 47.984C1181.23 48.816 1182.21 49.232 1183.42 49.232ZM1201.91 56V20.672H1211.9V56H1201.91ZM938.369 116V82.16H953.201C956.881 82.16 959.713 82.944 961.697 84.512C963.681 86.048 964.673 88.192 964.673 90.944C964.673 92.992 964.065 94.72 962.849 96.128C961.633 97.536 959.953 98.48 957.809 98.96V98.24C960.273 98.592 962.177 99.488 963.521 100.928C964.897 102.336 965.585 104.208 965.585 106.544C965.585 109.552 964.545 111.888 962.465 113.552C960.385 115.184 957.489 116 953.777 116H938.369ZM944.321 111.296H953.057C955.137 111.296 956.753 110.912 957.905 110.144C959.057 109.344 959.633 108.048 959.633 106.256C959.633 104.432 959.057 103.136 957.905 102.368C956.753 101.568 955.137 101.168 953.057 101.168H944.321V111.296ZM944.321 96.512H952.145C954.353 96.512 955.985 96.112 957.041 95.312C958.129 94.48 958.673 93.264 958.673 91.664C958.673 90.064 958.129 88.864 957.041 88.064C955.985 87.232 954.353 86.816 952.145 86.816H944.321V96.512ZM982.742 116.48C978.678 116.48 975.494 115.36 973.19 113.12C970.886 110.88 969.734 107.808 969.734 103.904C969.734 101.376 970.23 99.168 971.222 97.28C972.214 95.392 973.59 93.92 975.35 92.864C977.142 91.808 979.222 91.28 981.59 91.28C983.926 91.28 985.878 91.776 987.446 92.768C989.014 93.76 990.198 95.152 990.998 96.944C991.83 98.736 992.246 100.832 992.246 103.232V104.816H974.582V101.648H987.974L987.158 102.32C987.158 100.08 986.678 98.368 985.718 97.184C984.79 96 983.43 95.408 981.638 95.408C979.654 95.408 978.118 96.112 977.03 97.52C975.974 98.928 975.446 100.896 975.446 103.424V104.048C975.446 106.672 976.086 108.64 977.366 109.952C978.678 111.232 980.518 111.872 982.886 111.872C984.262 111.872 985.542 111.696 986.726 111.344C987.942 110.96 989.094 110.352 990.182 109.52L991.958 113.552C990.806 114.48 989.43 115.2 987.83 115.712C986.23 116.224 984.534 116.48 982.742 116.48ZM997.327 116V80.672H1003.33V116H997.327ZM1020.79 116.48C1018.29 116.48 1016.13 115.968 1014.31 114.944C1012.48 113.92 1011.06 112.464 1010.03 110.576C1009.04 108.688 1008.55 106.448 1008.55 103.856C1008.55 101.264 1009.04 99.04 1010.03 97.184C1011.06 95.296 1012.48 93.84 1014.31 92.816C1016.13 91.792 1018.29 91.28 1020.79 91.28C1023.28 91.28 1025.44 91.792 1027.27 92.816C1029.12 93.84 1030.55 95.296 1031.54 97.184C1032.56 99.04 1033.07 101.264 1033.07 103.856C1033.07 106.448 1032.56 108.688 1031.54 110.576C1030.55 112.464 1029.12 113.92 1027.27 114.944C1025.44 115.968 1023.28 116.48 1020.79 116.48ZM1020.79 111.872C1022.67 111.872 1024.18 111.216 1025.3 109.904C1026.42 108.56 1026.98 106.544 1026.98 103.856C1026.98 101.168 1026.42 99.168 1025.3 97.856C1024.18 96.544 1022.67 95.888 1020.79 95.888C1018.9 95.888 1017.39 96.544 1016.27 97.856C1015.15 99.168 1014.59 101.168 1014.59 103.856C1014.59 106.544 1015.15 108.56 1016.27 109.904C1017.39 111.216 1018.9 111.872 1020.79 111.872ZM1051.9 116V82.16H1058.09V96.272H1075.42V82.16H1081.61V116H1075.42V101.408H1058.09V116H1051.9ZM1099.54 116.48C1097.04 116.48 1094.88 115.968 1093.06 114.944C1091.23 113.92 1089.81 112.464 1088.78 110.576C1087.79 108.688 1087.3 106.448 1087.3 103.856C1087.3 101.264 1087.79 99.04 1088.78 97.184C1089.81 95.296 1091.23 93.84 1093.06 92.816C1094.88 91.792 1097.04 91.28 1099.54 91.28C1102.03 91.28 1104.19 91.792 1106.02 92.816C1107.87 93.84 1109.3 95.296 1110.29 97.184C1111.31 99.04 1111.82 101.264 1111.82 103.856C1111.82 106.448 1111.31 108.688 1110.29 110.576C1109.3 112.464 1107.87 113.92 1106.02 114.944C1104.19 115.968 1102.03 116.48 1099.54 116.48ZM1099.54 111.872C1101.42 111.872 1102.93 111.216 1104.05 109.904C1105.17 108.56 1105.73 106.544 1105.73 103.856C1105.73 101.168 1105.17 99.168 1104.05 97.856C1102.93 96.544 1101.42 95.888 1099.54 95.888C1097.65 95.888 1096.14 96.544 1095.02 97.856C1093.9 99.168 1093.34 101.168 1093.34 103.856C1093.34 106.544 1093.9 108.56 1095.02 109.904C1096.14 111.216 1097.65 111.872 1099.54 111.872ZM1116.95 116V97.952C1116.95 96.928 1116.92 95.888 1116.85 94.832C1116.82 93.776 1116.74 92.752 1116.61 91.76H1122.42L1123.09 98.384H1122.13C1122.45 96.784 1122.98 95.456 1123.72 94.4C1124.49 93.344 1125.41 92.56 1126.5 92.048C1127.59 91.536 1128.77 91.28 1130.05 91.28C1130.63 91.28 1131.09 91.312 1131.45 91.376C1131.8 91.408 1132.15 91.488 1132.5 91.616L1132.45 96.896C1131.85 96.64 1131.32 96.48 1130.87 96.416C1130.45 96.352 1129.93 96.32 1129.29 96.32C1127.91 96.32 1126.74 96.608 1125.78 97.184C1124.85 97.76 1124.15 98.56 1123.67 99.584C1123.22 100.608 1123 101.776 1123 103.088V116H1116.95ZM1135.84 116V91.76H1141.84V116H1135.84ZM1135.51 87.2V81.344H1142.18V87.2H1135.51ZM1147.4 116V112.064L1162.57 94.832V96.272H1147.4V91.76H1167.99V95.696L1152.68 113.072L1152.63 111.488H1168.52V116H1147.4ZM1184.1 116.48C1181.6 116.48 1179.44 115.968 1177.62 114.944C1175.79 113.92 1174.37 112.464 1173.35 110.576C1172.35 108.688 1171.86 106.448 1171.86 103.856C1171.86 101.264 1172.35 99.04 1173.35 97.184C1174.37 95.296 1175.79 93.84 1177.62 92.816C1179.44 91.792 1181.6 91.28 1184.1 91.28C1186.59 91.28 1188.75 91.792 1190.58 92.816C1192.43 93.84 1193.86 95.296 1194.85 97.184C1195.87 99.04 1196.39 101.264 1196.39 103.856C1196.39 106.448 1195.87 108.688 1194.85 110.576C1193.86 112.464 1192.43 113.92 1190.58 114.944C1188.75 115.968 1186.59 116.48 1184.1 116.48ZM1184.1 111.872C1185.99 111.872 1187.49 111.216 1188.61 109.904C1189.73 108.56 1190.29 106.544 1190.29 103.856C1190.29 101.168 1189.73 99.168 1188.61 97.856C1187.49 96.544 1185.99 95.888 1184.1 95.888C1182.21 95.888 1180.71 96.544 1179.59 97.856C1178.47 99.168 1177.91 101.168 1177.91 103.856C1177.91 106.544 1178.47 108.56 1179.59 109.904C1180.71 111.216 1182.21 111.872 1184.1 111.872ZM1201.56 116V97.808C1201.56 96.816 1201.53 95.808 1201.46 94.784C1201.4 93.76 1201.3 92.752 1201.18 91.76H1206.98L1207.46 96.56H1206.89C1207.66 94.864 1208.79 93.568 1210.3 92.672C1211.8 91.744 1213.54 91.28 1215.53 91.28C1218.38 91.28 1220.52 92.08 1221.96 93.68C1223.4 95.28 1224.12 97.776 1224.12 101.168V116H1218.12V101.456C1218.12 99.504 1217.74 98.112 1216.97 97.28C1216.23 96.416 1215.11 95.984 1213.61 95.984C1211.75 95.984 1210.28 96.56 1209.19 97.712C1208.1 98.864 1207.56 100.4 1207.56 102.32V116H1201.56ZM1240.85 116.48C1237.97 116.48 1235.79 115.728 1234.32 114.224C1232.85 112.72 1232.11 110.464 1232.11 107.456V96.272H1227.46V91.76H1232.11V85.568L1238.11 84.032V91.76H1244.59V96.272H1238.11V107.072C1238.11 108.736 1238.43 109.904 1239.07 110.576C1239.71 111.248 1240.59 111.584 1241.71 111.584C1242.32 111.584 1242.83 111.536 1243.25 111.44C1243.7 111.344 1244.13 111.216 1244.55 111.056V115.808C1244 116.032 1243.39 116.192 1242.72 116.288C1242.08 116.416 1241.46 116.48 1240.85 116.48ZM1260.15 116.48C1256.08 116.48 1252.9 115.36 1250.6 113.12C1248.29 110.88 1247.14 107.808 1247.14 103.904C1247.14 101.376 1247.64 99.168 1248.63 97.28C1249.62 95.392 1251 93.92 1252.76 92.864C1254.55 91.808 1256.63 91.28 1259 91.28C1261.33 91.28 1263.28 91.776 1264.85 92.768C1266.42 93.76 1267.6 95.152 1268.4 96.944C1269.24 98.736 1269.65 100.832 1269.65 103.232V104.816H1251.99V101.648H1265.38L1264.56 102.32C1264.56 100.08 1264.08 98.368 1263.12 97.184C1262.2 96 1260.84 95.408 1259.04 95.408C1257.06 95.408 1255.52 96.112 1254.44 97.52C1253.38 98.928 1252.85 100.896 1252.85 103.424V104.048C1252.85 106.672 1253.49 108.64 1254.77 109.952C1256.08 111.232 1257.92 111.872 1260.29 111.872C1261.67 111.872 1262.95 111.696 1264.13 111.344C1265.35 110.96 1266.5 110.352 1267.59 109.52L1269.36 113.552C1268.21 114.48 1266.84 115.2 1265.24 115.712C1263.64 116.224 1261.94 116.48 1260.15 116.48ZM1275.63 118.832H1270.69L1283.31 79.904H1288.26L1275.63 118.832ZM1290.87 116V82.16H1296.29L1308.73 110.144H1307.24L1319.67 82.16H1325.05V116H1319.43V90.896H1321.16L1309.78 116H1306.09L1294.71 90.896H1296.49V116H1290.87ZM1348.91 116.48C1345.1 116.48 1341.9 115.776 1339.31 114.368C1336.72 112.96 1334.76 110.96 1333.45 108.368C1332.14 105.776 1331.48 102.704 1331.48 99.152C1331.48 95.568 1332.19 92.48 1333.6 89.888C1335 87.264 1337.02 85.248 1339.64 83.84C1342.3 82.4 1345.48 81.68 1349.2 81.68C1351.66 81.68 1353.82 82.016 1355.68 82.688C1357.53 83.328 1359.16 84.272 1360.57 85.52L1358.51 90.32C1357.48 89.52 1356.51 88.88 1355.58 88.4C1354.65 87.92 1353.69 87.584 1352.7 87.392C1351.71 87.168 1350.56 87.056 1349.24 87.056C1345.53 87.056 1342.72 88.112 1340.8 90.224C1338.91 92.304 1337.96 95.296 1337.96 99.2C1337.96 103.104 1338.86 106.08 1340.65 108.128C1342.48 110.176 1345.32 111.2 1349.2 111.2C1350.51 111.2 1351.82 111.072 1353.13 110.816C1354.48 110.56 1355.79 110.192 1357.07 109.712L1355.92 112.304V102.176H1348V97.664H1361.05V113.936C1359.48 114.736 1357.61 115.36 1355.44 115.808C1353.26 116.256 1351.08 116.48 1348.91 116.48ZM1091.35 236V202.16H1105.7C1109.79 202.16 1113.23 202.848 1116.02 204.224C1118.83 205.6 1120.96 207.552 1122.4 210.08C1123.84 212.576 1124.56 215.568 1124.56 219.056C1124.56 222.512 1123.84 225.504 1122.4 228.032C1120.96 230.56 1118.83 232.528 1116.02 233.936C1113.23 235.312 1109.79 236 1105.7 236H1091.35ZM1101.71 227.648H1105.07C1108.21 227.648 1110.53 226.944 1112.03 225.536C1113.54 224.128 1114.29 221.968 1114.29 219.056C1114.29 216.112 1113.54 213.952 1112.03 212.576C1110.53 211.2 1108.21 210.512 1105.07 210.512H1101.71V227.648ZM1138.53 236.576C1136.45 236.576 1134.6 236.064 1132.96 235.04C1131.36 234.016 1130.1 232.544 1129.17 230.624C1128.28 228.704 1127.83 226.416 1127.83 223.76C1127.83 221.104 1128.28 218.816 1129.17 216.896C1130.1 214.976 1131.36 213.504 1132.96 212.48C1134.6 211.456 1136.45 210.944 1138.53 210.944C1140.32 210.944 1141.97 211.36 1143.48 212.192C1145.01 213.024 1146 214.112 1146.45 215.456H1145.97L1146.55 211.52H1156.15C1156.02 212.672 1155.92 213.84 1155.86 215.024C1155.8 216.176 1155.76 217.328 1155.76 218.48V236H1145.88L1145.78 232.352H1146.36C1145.88 233.6 1144.88 234.624 1143.38 235.424C1141.91 236.192 1140.29 236.576 1138.53 236.576ZM1141.89 229.232C1143.08 229.232 1144.04 228.816 1144.77 227.984C1145.54 227.152 1145.92 225.744 1145.92 223.76C1145.92 221.776 1145.54 220.368 1144.77 219.536C1144.04 218.704 1143.08 218.288 1141.89 218.288C1140.71 218.288 1139.73 218.704 1138.96 219.536C1138.23 220.368 1137.86 221.776 1137.86 223.76C1137.86 225.744 1138.23 227.152 1138.96 227.984C1139.7 228.816 1140.68 229.232 1141.89 229.232ZM1174.06 236.576C1170.25 236.576 1167.41 235.712 1165.52 233.984C1163.63 232.224 1162.69 229.568 1162.69 226.016V218.816H1158.17V211.52H1162.69V206L1172.67 203.696V211.52H1178.33V218.816H1172.67V225.728C1172.67 226.976 1172.97 227.776 1173.58 228.128C1174.22 228.48 1174.93 228.656 1175.69 228.656C1176.24 228.656 1176.69 228.624 1177.04 228.56C1177.42 228.496 1177.85 228.384 1178.33 228.224V235.808C1177.57 236.128 1176.81 236.336 1176.08 236.432C1175.37 236.528 1174.7 236.576 1174.06 236.576ZM1190.89 236.576C1188.81 236.576 1186.95 236.064 1185.32 235.04C1183.72 234.016 1182.46 232.544 1181.53 230.624C1180.63 228.704 1180.19 226.416 1180.19 223.76C1180.19 221.104 1180.63 218.816 1181.53 216.896C1182.46 214.976 1183.72 213.504 1185.32 212.48C1186.95 211.456 1188.81 210.944 1190.89 210.944C1192.68 210.944 1194.33 211.36 1195.83 212.192C1197.37 213.024 1198.36 214.112 1198.81 215.456H1198.33L1198.91 211.52H1208.51C1208.38 212.672 1208.28 213.84 1208.22 215.024C1208.15 216.176 1208.12 217.328 1208.12 218.48V236H1198.23L1198.14 232.352H1198.71C1198.23 233.6 1197.24 234.624 1195.74 235.424C1194.27 236.192 1192.65 236.576 1190.89 236.576ZM1194.25 229.232C1195.43 229.232 1196.39 228.816 1197.13 227.984C1197.9 227.152 1198.28 225.744 1198.28 223.76C1198.28 221.776 1197.9 220.368 1197.13 219.536C1196.39 218.704 1195.43 218.288 1194.25 218.288C1193.07 218.288 1192.09 218.704 1191.32 219.536C1190.59 220.368 1190.22 221.776 1190.22 223.76C1190.22 225.744 1190.59 227.152 1191.32 227.984C1192.06 228.816 1193.03 229.232 1194.25 229.232ZM783.094 296.528C780.726 296.528 778.438 296.192 776.23 295.52C774.054 294.848 772.294 293.92 770.95 292.736L773.302 287.168C774.742 288.224 776.262 289.024 777.862 289.568C779.462 290.08 781.11 290.336 782.806 290.336C784.79 290.336 786.278 289.968 787.27 289.232C788.262 288.496 788.758 287.408 788.758 285.968C788.758 284.624 788.278 283.616 787.318 282.944C786.39 282.24 784.998 281.888 783.142 281.888H777.478V275.984H782.47C784.07 275.984 785.35 275.616 786.31 274.88C787.27 274.112 787.75 273.072 787.75 271.76C787.75 270.48 787.302 269.504 786.406 268.832C785.51 268.16 784.214 267.824 782.518 267.824C779.286 267.824 776.406 268.896 773.878 271.04L771.478 265.568C772.918 264.32 774.662 263.36 776.71 262.688C778.79 261.984 780.966 261.632 783.238 261.632C786.886 261.632 789.734 262.448 791.782 264.08C793.862 265.68 794.902 267.92 794.902 270.8C794.902 272.784 794.342 274.496 793.222 275.936C792.102 277.344 790.566 278.288 788.614 278.768V278.144C790.918 278.528 792.71 279.472 793.99 280.976C795.27 282.48 795.91 284.368 795.91 286.64C795.91 289.712 794.758 292.128 792.454 293.888C790.182 295.648 787.062 296.528 783.094 296.528ZM812.595 296.528C808.531 296.528 805.395 295.008 803.187 291.968C801.011 288.896 799.923 284.576 799.923 279.008C799.923 273.344 801.011 269.04 803.187 266.096C805.395 263.12 808.531 261.632 812.595 261.632C816.691 261.632 819.827 263.12 822.003 266.096C824.179 269.04 825.267 273.328 825.267 278.96C825.267 284.56 824.179 288.896 822.003 291.968C819.827 295.008 816.691 296.528 812.595 296.528ZM812.595 290.48C814.451 290.48 815.827 289.568 816.723 287.744C817.651 285.888 818.115 282.96 818.115 278.96C818.115 274.96 817.651 272.08 816.723 270.32C815.827 268.56 814.451 267.68 812.595 267.68C810.739 267.68 809.347 268.56 808.419 270.32C807.523 272.08 807.075 274.944 807.075 278.912C807.075 282.944 807.539 285.888 808.467 287.744C809.395 289.568 810.771 290.48 812.595 290.48ZM853.051 296.528C850.939 296.528 849.067 296.016 847.435 294.992C845.835 293.968 844.571 292.512 843.643 290.624C842.747 288.736 842.299 286.464 842.299 283.808C842.299 281.184 842.747 278.928 843.643 277.04C844.539 275.152 845.803 273.712 847.435 272.72C849.067 271.696 850.939 271.184 853.051 271.184C854.971 271.184 856.683 271.648 858.187 272.576C859.723 273.472 860.747 274.688 861.259 276.224H860.635V260.672H867.883V296H860.731V291.248H861.355C860.843 292.848 859.819 294.128 858.283 295.088C856.747 296.048 855.003 296.528 853.051 296.528ZM855.211 291.056C856.875 291.056 858.219 290.464 859.243 289.28C860.267 288.096 860.779 286.272 860.779 283.808C860.779 281.344 860.267 279.536 859.243 278.384C858.219 277.232 856.875 276.656 855.211 276.656C853.547 276.656 852.187 277.232 851.131 278.384C850.107 279.536 849.595 281.344 849.595 283.808C849.595 286.272 850.107 288.096 851.131 289.28C852.187 290.464 853.547 291.056 855.211 291.056ZM886.068 296.528C881.844 296.528 878.548 295.392 876.18 293.12C873.812 290.848 872.628 287.76 872.628 283.856C872.628 281.328 873.124 279.12 874.116 277.232C875.14 275.344 876.548 273.872 878.34 272.816C880.164 271.728 882.292 271.184 884.724 271.184C887.124 271.184 889.124 271.696 890.724 272.72C892.356 273.744 893.572 275.184 894.372 277.04C895.204 278.864 895.62 280.992 895.62 283.424V285.104H878.58V281.504H890.34L889.524 282.176C889.524 280.16 889.108 278.64 888.276 277.616C887.476 276.56 886.308 276.032 884.772 276.032C883.076 276.032 881.764 276.656 880.836 277.904C879.94 279.152 879.492 280.944 879.492 283.28V284.048C879.492 286.416 880.068 288.176 881.22 289.328C882.404 290.48 884.1 291.056 886.308 291.056C887.62 291.056 888.852 290.896 890.004 290.576C891.188 290.224 892.308 289.68 893.364 288.944L895.38 293.744C894.164 294.64 892.756 295.328 891.156 295.808C889.588 296.288 887.892 296.528 886.068 296.528ZM914.293 296V262.16H920.869L932.629 288.56H931.093L942.853 262.16H949.381V296H942.565V273.008H944.485L933.973 296H929.653L919.093 273.008H921.109V296H914.293ZM965.315 296.528C963.203 296.528 961.347 296.016 959.747 294.992C958.147 293.968 956.899 292.512 956.003 290.624C955.107 288.736 954.659 286.464 954.659 283.808C954.659 281.184 955.107 278.928 956.003 277.04C956.899 275.152 958.147 273.712 959.747 272.72C961.347 271.696 963.203 271.184 965.315 271.184C967.267 271.184 969.011 271.664 970.547 272.624C972.115 273.552 973.139 274.816 973.619 276.416H973.091L973.667 271.664H980.627C980.531 272.72 980.435 273.792 980.339 274.88C980.275 275.936 980.243 276.976 980.243 278V296H973.043L972.995 291.44H973.571C973.059 292.976 972.035 294.208 970.499 295.136C968.963 296.064 967.235 296.528 965.315 296.528ZM967.523 291.056C969.187 291.056 970.531 290.464 971.555 289.28C972.579 288.096 973.091 286.272 973.091 283.808C973.091 281.344 972.579 279.536 971.555 278.384C970.531 277.232 969.187 276.656 967.523 276.656C965.859 276.656 964.515 277.232 963.491 278.384C962.467 279.536 961.955 281.344 961.955 283.808C961.955 286.272 962.451 288.096 963.443 289.28C964.467 290.464 965.827 291.056 967.523 291.056ZM986.187 296V271.664H993.435V296H986.187ZM985.899 267.68V260.912H993.675V267.68H985.899ZM1010.88 296.528C1008.29 296.528 1006.03 296.016 1004.11 294.992C1002.22 293.936 1000.75 292.464 999.695 290.576C998.671 288.688 998.159 286.432 998.159 283.808C998.159 281.216 998.671 278.976 999.695 277.088C1000.75 275.2 1002.22 273.744 1004.11 272.72C1006.03 271.696 1008.29 271.184 1010.88 271.184C1013.47 271.184 1015.73 271.696 1017.65 272.72C1019.57 273.744 1021.04 275.2 1022.06 277.088C1023.12 278.976 1023.65 281.216 1023.65 283.808C1023.65 286.432 1023.12 288.688 1022.06 290.576C1021.04 292.464 1019.57 293.936 1017.65 294.992C1015.73 296.016 1013.47 296.528 1010.88 296.528ZM1010.88 291.056C1012.54 291.056 1013.85 290.464 1014.81 289.28C1015.81 288.096 1016.3 286.272 1016.3 283.808C1016.3 281.344 1015.81 279.536 1014.81 278.384C1013.85 277.232 1012.54 276.656 1010.88 276.656C1009.21 276.656 1007.89 277.232 1006.89 278.384C1005.93 279.536 1005.45 281.344 1005.45 283.808C1005.45 286.272 1005.93 288.096 1006.89 289.28C1007.89 290.464 1009.21 291.056 1010.88 291.056ZM1051.33 296.528C1049.22 296.528 1047.36 296.016 1045.76 294.992C1044.16 293.968 1042.91 292.512 1042.02 290.624C1041.12 288.736 1040.67 286.464 1040.67 283.808C1040.67 281.184 1041.12 278.928 1042.02 277.04C1042.91 275.152 1044.16 273.712 1045.76 272.72C1047.36 271.696 1049.22 271.184 1051.33 271.184C1053.28 271.184 1055.03 271.664 1056.56 272.624C1058.13 273.552 1059.15 274.816 1059.63 276.416H1059.11L1059.68 271.664H1066.64C1066.55 272.72 1066.45 273.792 1066.35 274.88C1066.29 275.936 1066.26 276.976 1066.26 278V296H1059.06L1059.01 291.44H1059.59C1059.07 292.976 1058.05 294.208 1056.51 295.136C1054.98 296.064 1053.25 296.528 1051.33 296.528ZM1053.54 291.056C1055.2 291.056 1056.55 290.464 1057.57 289.28C1058.59 288.096 1059.11 286.272 1059.11 283.808C1059.11 281.344 1058.59 279.536 1057.57 278.384C1056.55 277.232 1055.2 276.656 1053.54 276.656C1051.87 276.656 1050.53 277.232 1049.51 278.384C1048.48 279.536 1047.97 281.344 1047.97 283.808C1047.97 286.272 1048.47 288.096 1049.46 289.28C1050.48 290.464 1051.84 291.056 1053.54 291.056ZM1086.28 296V290.48L1097.03 279.296C1098.37 277.888 1099.35 276.64 1099.96 275.552C1100.57 274.464 1100.87 273.344 1100.87 272.192C1100.87 270.752 1100.41 269.664 1099.48 268.928C1098.55 268.192 1097.22 267.824 1095.49 267.824C1094.05 267.824 1092.63 268.096 1091.22 268.64C1089.85 269.152 1088.49 269.952 1087.14 271.04L1084.79 265.568C1086.2 264.352 1087.94 263.392 1090.02 262.688C1092.1 261.984 1094.26 261.632 1096.5 261.632C1100.28 261.632 1103.17 262.48 1105.19 264.176C1107.21 265.84 1108.21 268.224 1108.21 271.328C1108.21 273.408 1107.73 275.392 1106.77 277.28C1105.81 279.168 1104.26 281.168 1102.12 283.28L1093.48 291.776V289.856H1109.51V296H1086.28ZM1137.63 296.528C1135.52 296.528 1133.65 296.016 1132.01 294.992C1130.41 293.968 1129.15 292.512 1128.22 290.624C1127.33 288.736 1126.88 286.464 1126.88 283.808C1126.88 281.184 1127.33 278.928 1128.22 277.04C1129.12 275.152 1130.38 273.712 1132.01 272.72C1133.65 271.696 1135.52 271.184 1137.63 271.184C1139.55 271.184 1141.26 271.648 1142.77 272.576C1144.3 273.472 1145.33 274.688 1145.84 276.224H1145.21V260.672H1152.46V296H1145.31V291.248H1145.93C1145.42 292.848 1144.4 294.128 1142.86 295.088C1141.33 296.048 1139.58 296.528 1137.63 296.528ZM1139.79 291.056C1141.45 291.056 1142.8 290.464 1143.82 289.28C1144.85 288.096 1145.36 286.272 1145.36 283.808C1145.36 281.344 1144.85 279.536 1143.82 278.384C1142.8 277.232 1141.45 276.656 1139.79 276.656C1138.13 276.656 1136.77 277.232 1135.71 278.384C1134.69 279.536 1134.17 281.344 1134.17 283.808C1134.17 286.272 1134.69 288.096 1135.71 289.28C1136.77 290.464 1138.13 291.056 1139.79 291.056ZM1170.65 296.528C1166.42 296.528 1163.13 295.392 1160.76 293.12C1158.39 290.848 1157.21 287.76 1157.21 283.856C1157.21 281.328 1157.7 279.12 1158.69 277.232C1159.72 275.344 1161.13 273.872 1162.92 272.816C1164.74 271.728 1166.87 271.184 1169.3 271.184C1171.7 271.184 1173.7 271.696 1175.3 272.72C1176.93 273.744 1178.15 275.184 1178.95 277.04C1179.78 278.864 1180.2 280.992 1180.2 283.424V285.104H1163.16V281.504H1174.92L1174.1 282.176C1174.1 280.16 1173.69 278.64 1172.85 277.616C1172.05 276.56 1170.89 276.032 1169.35 276.032C1167.65 276.032 1166.34 276.656 1165.41 277.904C1164.52 279.152 1164.07 280.944 1164.07 283.28V284.048C1164.07 286.416 1164.65 288.176 1165.8 289.328C1166.98 290.48 1168.68 291.056 1170.89 291.056C1172.2 291.056 1173.43 290.896 1174.58 290.576C1175.77 290.224 1176.89 289.68 1177.94 288.944L1179.96 293.744C1178.74 294.64 1177.33 295.328 1175.73 295.808C1174.17 296.288 1172.47 296.528 1170.65 296.528ZM1199.98 304.976C1199.4 304.976 1198.71 304.944 1197.91 304.88C1197.11 304.816 1196.3 304.704 1195.46 304.544V298.688C1196.1 298.816 1196.71 298.912 1197.29 298.976C1197.86 299.04 1198.33 299.072 1198.68 299.072C1200.15 299.072 1201.19 298.656 1201.8 297.824C1202.41 296.992 1202.71 295.648 1202.71 293.792V262.16H1210.2V293.792C1210.2 296.288 1209.85 298.368 1209.14 300.032C1208.47 301.696 1207.38 302.928 1205.88 303.728C1204.41 304.56 1202.44 304.976 1199.98 304.976ZM1225.46 296.528C1222.42 296.528 1220.16 295.696 1218.69 294.032C1217.22 292.336 1216.48 289.776 1216.48 286.352V271.664H1223.73V286.352C1223.73 287.888 1224.03 289.024 1224.64 289.76C1225.28 290.496 1226.26 290.864 1227.57 290.864C1229.01 290.864 1230.19 290.368 1231.12 289.376C1232.08 288.352 1232.56 286.992 1232.56 285.296V271.664H1239.81V296H1232.75V291.344H1233.42C1232.69 292.976 1231.63 294.256 1230.26 295.184C1228.91 296.08 1227.31 296.528 1225.46 296.528ZM1245.78 296V278C1245.78 276.976 1245.75 275.936 1245.68 274.88C1245.62 273.792 1245.52 272.72 1245.4 271.664H1252.36L1252.88 276.176H1252.31C1253.11 274.576 1254.24 273.344 1255.72 272.48C1257.19 271.616 1258.9 271.184 1260.85 271.184C1263.7 271.184 1265.83 272.016 1267.24 273.68C1268.68 275.312 1269.4 277.856 1269.4 281.312V296H1262.15V281.648C1262.15 279.888 1261.83 278.64 1261.19 277.904C1260.55 277.168 1259.59 276.8 1258.31 276.8C1256.71 276.8 1255.43 277.312 1254.47 278.336C1253.51 279.328 1253.03 280.672 1253.03 282.368V296H1245.78ZM1275.22 296V260.672H1282.47V276.224H1281.75C1282.51 274.592 1283.65 273.344 1285.15 272.48C1286.66 271.616 1288.39 271.184 1290.34 271.184C1293.19 271.184 1295.31 272.016 1296.72 273.68C1298.13 275.312 1298.83 277.824 1298.83 281.216V296H1291.59V281.552C1291.59 279.856 1291.27 278.64 1290.63 277.904C1290.02 277.168 1289.06 276.8 1287.75 276.8C1286.15 276.8 1284.87 277.296 1283.91 278.288C1282.95 279.28 1282.47 280.608 1282.47 282.272V296H1275.22ZM1316.18 296.528C1313.58 296.528 1311.33 296.016 1309.41 294.992C1307.52 293.936 1306.05 292.464 1304.99 290.576C1303.97 288.688 1303.46 286.432 1303.46 283.808C1303.46 281.216 1303.97 278.976 1304.99 277.088C1306.05 275.2 1307.52 273.744 1309.41 272.72C1311.33 271.696 1313.58 271.184 1316.18 271.184C1318.77 271.184 1321.02 271.696 1322.94 272.72C1324.86 273.744 1326.34 275.2 1327.36 277.088C1328.42 278.976 1328.94 281.216 1328.94 283.808C1328.94 286.432 1328.42 288.688 1327.36 290.576C1326.34 292.464 1324.86 293.936 1322.94 294.992C1321.02 296.016 1318.77 296.528 1316.18 296.528ZM1316.18 291.056C1317.84 291.056 1319.15 290.464 1320.11 289.28C1321.1 288.096 1321.6 286.272 1321.6 283.808C1321.6 281.344 1321.1 279.536 1320.11 278.384C1319.15 277.232 1317.84 276.656 1316.18 276.656C1314.51 276.656 1313.18 277.232 1312.19 278.384C1311.23 279.536 1310.75 281.344 1310.75 283.808C1310.75 286.272 1311.23 288.096 1312.19 289.28C1313.18 290.464 1314.51 291.056 1316.18 291.056ZM1356.72 296.528C1354.61 296.528 1352.74 296.016 1351.11 294.992C1349.51 293.968 1348.24 292.512 1347.32 290.624C1346.42 288.736 1345.97 286.464 1345.97 283.808C1345.97 281.184 1346.42 278.928 1347.32 277.04C1348.21 275.152 1349.48 273.712 1351.11 272.72C1352.74 271.696 1354.61 271.184 1356.72 271.184C1358.64 271.184 1360.36 271.648 1361.86 272.576C1363.4 273.472 1364.42 274.688 1364.93 276.224H1364.31V260.672H1371.56V296H1364.4V291.248H1365.03C1364.52 292.848 1363.49 294.128 1361.96 295.088C1360.42 296.048 1358.68 296.528 1356.72 296.528ZM1358.88 291.056C1360.55 291.056 1361.89 290.464 1362.92 289.28C1363.94 288.096 1364.45 286.272 1364.45 283.808C1364.45 281.344 1363.94 279.536 1362.92 278.384C1361.89 277.232 1360.55 276.656 1358.88 276.656C1357.22 276.656 1355.86 277.232 1354.8 278.384C1353.78 279.536 1353.27 281.344 1353.27 283.808C1353.27 286.272 1353.78 288.096 1354.8 289.28C1355.86 290.464 1357.22 291.056 1358.88 291.056ZM1389.74 296.528C1385.52 296.528 1382.22 295.392 1379.85 293.12C1377.48 290.848 1376.3 287.76 1376.3 283.856C1376.3 281.328 1376.8 279.12 1377.79 277.232C1378.81 275.344 1380.22 273.872 1382.01 272.816C1383.84 271.728 1385.96 271.184 1388.4 271.184C1390.8 271.184 1392.8 271.696 1394.4 272.72C1396.03 273.744 1397.24 275.184 1398.04 277.04C1398.88 278.864 1399.29 280.992 1399.29 283.424V285.104H1382.25V281.504H1394.01L1393.2 282.176C1393.2 280.16 1392.78 278.64 1391.95 277.616C1391.15 276.56 1389.98 276.032 1388.44 276.032C1386.75 276.032 1385.44 276.656 1384.51 277.904C1383.61 279.152 1383.16 280.944 1383.16 283.28V284.048C1383.16 286.416 1383.74 288.176 1384.89 289.328C1386.08 290.48 1387.77 291.056 1389.98 291.056C1391.29 291.056 1392.52 290.896 1393.68 290.576C1394.86 290.224 1395.98 289.68 1397.04 288.944L1399.05 293.744C1397.84 294.64 1396.43 295.328 1394.83 295.808C1393.26 296.288 1391.56 296.528 1389.74 296.528ZM1417.96 296V290.48L1428.72 279.296C1430.06 277.888 1431.04 276.64 1431.64 275.552C1432.25 274.464 1432.56 273.344 1432.56 272.192C1432.56 270.752 1432.09 269.664 1431.16 268.928C1430.24 268.192 1428.91 267.824 1427.18 267.824C1425.74 267.824 1424.32 268.096 1422.91 268.64C1421.53 269.152 1420.17 269.952 1418.83 271.04L1416.48 265.568C1417.88 264.352 1419.63 263.392 1421.71 262.688C1423.79 261.984 1425.95 261.632 1428.19 261.632C1431.96 261.632 1434.86 262.48 1436.88 264.176C1438.89 265.84 1439.9 268.224 1439.9 271.328C1439.9 273.408 1439.42 275.392 1438.46 277.28C1437.5 279.168 1435.95 281.168 1433.8 283.28L1425.16 291.776V289.856H1441.2V296H1417.96ZM1457.64 296.528C1453.58 296.528 1450.44 295.008 1448.23 291.968C1446.06 288.896 1444.97 284.576 1444.97 279.008C1444.97 273.344 1446.06 269.04 1448.23 266.096C1450.44 263.12 1453.58 261.632 1457.64 261.632C1461.74 261.632 1464.87 263.12 1467.05 266.096C1469.23 269.04 1470.31 273.328 1470.31 278.96C1470.31 284.56 1469.23 288.896 1467.05 291.968C1464.87 295.008 1461.74 296.528 1457.64 296.528ZM1457.64 290.48C1459.5 290.48 1460.87 289.568 1461.77 287.744C1462.7 285.888 1463.16 282.96 1463.16 278.96C1463.16 274.96 1462.7 272.08 1461.77 270.32C1460.87 268.56 1459.5 267.68 1457.64 267.68C1455.79 267.68 1454.39 268.56 1453.47 270.32C1452.57 272.08 1452.12 274.944 1452.12 278.912C1452.12 282.944 1452.59 285.888 1453.51 287.744C1454.44 289.568 1455.82 290.48 1457.64 290.48ZM1475.53 296V290.48L1486.28 279.296C1487.62 277.888 1488.6 276.64 1489.21 275.552C1489.82 274.464 1490.12 273.344 1490.12 272.192C1490.12 270.752 1489.66 269.664 1488.73 268.928C1487.8 268.192 1486.47 267.824 1484.74 267.824C1483.3 267.824 1481.88 268.096 1480.47 268.64C1479.1 269.152 1477.74 269.952 1476.39 271.04L1474.04 265.568C1475.45 264.352 1477.19 263.392 1479.27 262.688C1481.35 261.984 1483.51 261.632 1485.75 261.632C1489.53 261.632 1492.42 262.48 1494.44 264.176C1496.46 265.84 1497.46 268.224 1497.46 271.328C1497.46 273.408 1496.98 275.392 1496.02 277.28C1495.06 279.168 1493.51 281.168 1491.37 283.28L1482.73 291.776V289.856H1498.76V296H1475.53ZM1515.2 296.528C1513.7 296.528 1512.21 296.368 1510.74 296.048C1509.27 295.728 1507.89 295.296 1506.61 294.752C1505.33 294.176 1504.26 293.504 1503.4 292.736L1505.75 287.168C1507.19 288.192 1508.69 288.976 1510.26 289.52C1511.83 290.064 1513.43 290.336 1515.06 290.336C1516.92 290.336 1518.36 289.904 1519.38 289.04C1520.44 288.144 1520.96 286.928 1520.96 285.392C1520.96 283.856 1520.47 282.624 1519.48 281.696C1518.48 280.768 1517.12 280.304 1515.4 280.304C1514.18 280.304 1513.04 280.528 1511.99 280.976C1510.96 281.424 1510.04 282.112 1509.2 283.04H1504.4V262.16H1526V268.256H1511.46V277.424H1509.73C1510.53 276.432 1511.59 275.664 1512.9 275.12C1514.21 274.576 1515.68 274.304 1517.32 274.304C1519.49 274.304 1521.38 274.768 1522.98 275.696C1524.61 276.592 1525.88 277.856 1526.77 279.488C1527.67 281.088 1528.12 282.976 1528.12 285.152C1528.12 287.392 1527.59 289.376 1526.53 291.104C1525.51 292.8 1524.02 294.128 1522.07 295.088C1520.15 296.048 1517.86 296.528 1515.2 296.528Z" fill="#F4F6ED"/>
</g>
<rect y="441" width="670" height="147" rx="40" fill="#565FF2"/>
<rect x="531" y="441" width="670" height="147" rx="40" fill="#0F0F0F"/>
<rect x="1062" y="588" width="133" height="596" rx="40" transform="rotate(-90 1062 588)" fill="#CAFF54"/>
<rect x="1519" y="588" width="225" height="217" rx="40" transform="rotate(-90 1519 588)" fill="#CAFF54"/>
</g>
<defs>
<filter id="filter0_di_135_2" x="423" y="-83" width="1453" height="454" filterUnits="userSpaceOnUse" color-interpolation-filters="sRGB">
<feFlood flood-opacity="0" result="BackgroundImageFix"/>
<feColorMatrix in="SourceAlpha" type="matrix" values="0 0 0 0 0 0 0 0 0 0 0 0 0 0 0 0 0 0 127 0" result="hardAlpha"/>
<feOffset dy="4"/>
<feGaussianBlur stdDeviation="2"/>
<feComposite in2="hardAlpha" operator="out"/>
<feColorMatrix type="matrix" values="0 0 0 0 0 0 0 0 0 0 0 0 0 0 0 0 0 0 0.25 0"/>
<feBlend mode="normal" in2="BackgroundImageFix" result="effect1_dropShadow_135_2"/>
<feBlend mode="normal" in="SourceGraphic" in2="effect1_dropShadow_135_2" result="shape"/>
<feColorMatrix in="SourceAlpha" type="matrix" values="0 0 0 0 0 0 0 0 0 0 0 0 0 0 0 0 0 0 127 0" result="hardAlpha"/>
<feOffset dy="4"/>
<feGaussianBlur stdDeviation="2"/>
<feComposite in2="hardAlpha" operator="arithmetic" k2="-1" k3="1"/>
<feColorMatrix type="matrix" values="0 0 0 0 0 0 0 0 0 0 0 0 0 0 0 0 0 0 0.25 0"/>
<feBlend mode="normal" in2="shape" result="effect2_innerShadow_135_2"/>
</filter>
<clipPath id="clip0_135_2">
<rect width="1875" height="588" fill="white"/>
</clipPath>
</defs>
</svg>
